<svg width="50" height="50" viewBox="0 0 50 50" fill="none" xmlns="http://www.w3.org/2000/svg">
  <path d="M24.9924 36.0241C22.81 36.0241 20.6766 35.3775 18.862 34.1662C17.0474 32.9548 15.6331 31.2331 14.798 29.2187C13.9628 27.2043 13.7443 24.9878 14.17 22.8493C14.5958 20.7109 15.6467 18.7466 17.1899 17.2048C18.7331 15.6631 20.6992 14.6131 22.8397 14.1878C24.9802 13.7624 27.1988 13.9807 29.2151 14.8151C31.2314 15.6495 32.9547 17.0625 34.1672 18.8754C35.3797 20.6883 36.0268 22.8196 36.0268 25C36.0239 27.9229 34.8604 30.7251 32.7917 32.7919C30.7229 34.8587 27.918 36.0211 24.9924 36.0241ZM37.8416 8.93956L37.6736 9.1634L37.5056 9.38724L37.2815 9.21936L37.0687 9.05148C34.5373 7.14076 31.5875 5.85883 28.4626 5.31148C25.3376 4.76414 22.1272 4.96708 19.0963 5.90355C16.0653 6.84003 13.3007 8.48318 11.0306 10.6974C8.76056 12.9117 7.05008 15.6335 6.04036 18.6383C5.03063 21.6431 4.75062 24.8447 5.22343 27.9789C5.69624 31.1131 6.90831 34.0901 8.75962 36.6641C10.6109 39.2381 13.0484 41.3354 15.8708 42.7828C18.6933 44.2303 21.8198 44.9864 24.9924 44.9888C29.356 45.0014 33.6015 43.5732 37.0687 40.9261L37.2815 40.7694L37.5056 40.5904L37.6736 40.8254L37.8416 41.0492C38.5966 42.0901 39.5544 42.9677 40.6575 43.6293C41.7606 44.2909 42.9862 44.7229 44.2606 44.8993L45 45V5L44.2606 5.10073C42.9873 5.27635 41.7624 5.70686 40.6595 6.36647C39.5565 7.02608 38.5981 7.90124 37.8416 8.93956Z" fill="#00C2FF"/>
</svg>
